<svg xmlns="http://www.w3.org/2000/svg" width="75.887" height="75.729" viewBox="0 0 75.887 75.729">
  <g id="air_purifier" data-name="air purifier" transform="translate(-32 71.75)">
    <path id="Path_216" data-name="Path 216" d="M330.981-479.41a18.6,18.6,0,0,0-9.6,5.471c-1.22,1.27-1.457,1.88-1.237,3.049a2.959,2.959,0,0,0,2,2c1.186.22,1.745-.017,3.218-1.389a15.693,15.693,0,0,1,4.811-3.235,7.271,7.271,0,0,1,3.439-.44,7.271,7.271,0,0,1,3.439.44,15.7,15.7,0,0,1,4.811,3.235c1.474,1.372,2.033,1.609,3.218,1.389a2.959,2.959,0,0,0,2-2c.254-1.287.017-1.779-1.66-3.439a18.506,18.506,0,0,0-8.249-4.878A18.96,18.96,0,0,0,330.981-479.41Z" transform="translate(-239.272 407.825)"/>
    <path id="Path_217" data-name="Path 217" d="M38.115-463.813a8.321,8.321,0,0,0-5.861,5.945c-.22.83-.254,4.387-.254,26.306,0,22.207.034,25.459.254,26.34a8.293,8.293,0,0,0,6.708,6.081l1.169.169v2.625l-3.2.051c-2.93.051-3.252.085-3.676.407a2.392,2.392,0,0,0-1.169,2.27,2.392,2.392,0,0,0,1.169,2.27c.457.356.508.356,21.783.356s21.326,0,21.783-.356a2.392,2.392,0,0,0,1.169-2.27,2.392,2.392,0,0,0-1.169-2.27c-.423-.322-.745-.356-3.676-.407l-3.2-.051v-2.625l1.169-.169a8.293,8.293,0,0,0,6.708-6.081c.22-.881.254-4.133.254-26.34s-.034-25.459-.254-26.34a8.289,8.289,0,0,0-5.962-5.929C70.434-464.2,39.5-464.185,38.115-463.813Zm33.285,5.59a2.392,2.392,0,0,1,1.169,2.27,2.392,2.392,0,0,1-1.169,2.27c-.457.356-.61.356-15.99.407-10.587.034-15.736,0-16.16-.136a2.721,2.721,0,0,1-1.2-4.252c.881-1.033.051-1,17.193-.949C70.79-458.579,70.942-458.579,71.4-458.223Zm-16.363,10.4c12.585,0,15.855-.051,16.651-.237l.966-.22-.034,21.055c-.051,20.953-.051,21.055-.407,21.512a4.616,4.616,0,0,1-.813.813c-.457.356-.576.356-16.363.356s-15.906,0-16.363-.356a4.616,4.616,0,0,1-.813-.813c-.356-.457-.356-.559-.407-21.512L37.42-448.28l.966.22C39.182-447.873,42.451-447.823,55.037-447.823Zm9.486,50.139v1.355H45.551v-2.71H64.522Z" transform="translate(0 394.972)"/>
    <path id="Path_218" data-name="Path 218" d="M81.773-351.676a2.681,2.681,0,0,0-.779,4.353,2.682,2.682,0,0,0,4.523-2.473A2.754,2.754,0,0,0,81.773-351.676Z" transform="translate(-40.033 301.773)"/>
    <path id="Path_219" data-name="Path 219" d="M129.773-351.676a2.681,2.681,0,0,0-.779,4.353,2.682,2.682,0,0,0,4.523-2.473A2.754,2.754,0,0,0,129.773-351.676Z" transform="translate(-79.902 301.773)"/>
    <path id="Path_220" data-name="Path 220" d="M177.773-351.676a2.681,2.681,0,0,0-.779,4.353,2.682,2.682,0,0,0,4.523-2.473A2.754,2.754,0,0,0,177.773-351.676Z" transform="translate(-119.772 301.773)"/>
    <path id="Path_221" data-name="Path 221" d="M225.773-351.676a2.681,2.681,0,0,0-.779,4.353,2.682,2.682,0,0,0,4.523-2.473A2.754,2.754,0,0,0,225.773-351.676Z" transform="translate(-159.641 301.773)"/>
    <path id="Path_222" data-name="Path 222" d="M81.773-303.676a2.681,2.681,0,0,0-.779,4.353,2.682,2.682,0,0,0,4.523-2.473A2.754,2.754,0,0,0,81.773-303.676Z" transform="translate(-40.033 261.903)"/>
    <path id="Path_223" data-name="Path 223" d="M129.773-303.676a2.681,2.681,0,0,0-.779,4.353,2.682,2.682,0,0,0,4.523-2.473A2.754,2.754,0,0,0,129.773-303.676Z" transform="translate(-79.902 261.903)"/>
    <path id="Path_224" data-name="Path 224" d="M177.773-303.676a2.681,2.681,0,0,0-.779,4.353,2.682,2.682,0,0,0,4.523-2.473A2.754,2.754,0,0,0,177.773-303.676Z" transform="translate(-119.772 261.903)"/>
    <path id="Path_225" data-name="Path 225" d="M225.773-303.676a2.681,2.681,0,0,0-.779,4.353,2.682,2.682,0,0,0,4.523-2.473A2.754,2.754,0,0,0,225.773-303.676Z" transform="translate(-159.641 261.903)"/>
    <path id="Path_226" data-name="Path 226" d="M81.773-255.789a2.681,2.681,0,0,0-.779,4.353,2.553,2.553,0,0,0,3.76,0A2.684,2.684,0,0,0,81.773-255.789Z" transform="translate(-40.033 222.147)"/>
    <path id="Path_227" data-name="Path 227" d="M129.773-255.789a2.681,2.681,0,0,0-.779,4.353,2.553,2.553,0,0,0,3.76,0A2.684,2.684,0,0,0,129.773-255.789Z" transform="translate(-79.902 222.147)"/>
    <path id="Path_228" data-name="Path 228" d="M177.773-255.789a2.681,2.681,0,0,0-.779,4.353,2.553,2.553,0,0,0,3.76,0A2.684,2.684,0,0,0,177.773-255.789Z" transform="translate(-119.772 222.147)"/>
    <path id="Path_229" data-name="Path 229" d="M225.773-255.789a2.681,2.681,0,0,0-.779,4.353,2.553,2.553,0,0,0,3.76,0A2.684,2.684,0,0,0,225.773-255.789Z" transform="translate(-159.641 222.147)"/>
    <path id="Path_230" data-name="Path 230" d="M81.773-207.789a2.681,2.681,0,0,0-.779,4.353,2.553,2.553,0,0,0,3.76,0A2.684,2.684,0,0,0,81.773-207.789Z" transform="translate(-40.033 182.277)"/>
    <path id="Path_231" data-name="Path 231" d="M129.773-207.789a2.681,2.681,0,0,0-.779,4.353,2.553,2.553,0,0,0,3.76,0A2.684,2.684,0,0,0,129.773-207.789Z" transform="translate(-79.902 182.277)"/>
    <path id="Path_232" data-name="Path 232" d="M177.773-207.789a2.681,2.681,0,0,0-.779,4.353,2.553,2.553,0,0,0,3.76,0A2.684,2.684,0,0,0,177.773-207.789Z" transform="translate(-119.772 182.277)"/>
    <path id="Path_233" data-name="Path 233" d="M225.773-207.789a2.681,2.681,0,0,0-.779,4.353,2.553,2.553,0,0,0,3.76,0A2.684,2.684,0,0,0,225.773-207.789Z" transform="translate(-159.641 182.277)"/>
    <path id="Path_234" data-name="Path 234" d="M81.773-159.789a2.681,2.681,0,0,0-.779,4.353,2.553,2.553,0,0,0,3.76,0A2.684,2.684,0,0,0,81.773-159.789Z" transform="translate(-40.033 142.408)"/>
    <path id="Path_235" data-name="Path 235" d="M129.773-159.789a2.681,2.681,0,0,0-.779,4.353,2.553,2.553,0,0,0,3.76,0A2.684,2.684,0,0,0,129.773-159.789Z" transform="translate(-79.902 142.408)"/>
    <path id="Path_236" data-name="Path 236" d="M177.773-159.789a2.681,2.681,0,0,0-.779,4.353,2.553,2.553,0,0,0,3.76,0A2.684,2.684,0,0,0,177.773-159.789Z" transform="translate(-119.772 142.408)"/>
    <path id="Path_237" data-name="Path 237" d="M225.773-159.789a2.681,2.681,0,0,0-.779,4.353,2.554,2.554,0,0,0,3.76,0A2.684,2.684,0,0,0,225.773-159.789Z" transform="translate(-159.641 142.408)"/>
    <path id="Path_238" data-name="Path 238" d="M358.725-431.44a10.433,10.433,0,0,0-5.691,3.117c-1.321,1.406-1.406,2.829-.22,4.014,1.186,1.2,2.558,1.1,4.082-.254,1.321-1.186,2.066-1.541,3.218-1.541s1.9.356,3.218,1.541c1.524,1.355,2.9,1.457,4.082.254,1.186-1.186,1.1-2.609-.22-4.014A9.961,9.961,0,0,0,358.725-431.44Z" transform="translate(-265.779 367.919)"/>
    <path id="Path_239" data-name="Path 239" d="M385.773-383.676a2.681,2.681,0,0,0-.779,4.353,2.682,2.682,0,0,0,4.523-2.473A2.754,2.754,0,0,0,385.773-383.676Z" transform="translate(-292.539 328.353)"/>
    <path id="Path_240" data-name="Path 240" d="M338.286-351.623a2.746,2.746,0,0,0-.982,4.2,3.162,3.162,0,0,0,2.761,1c1.05,0,1.253.051,1.609.423a1.313,1.313,0,0,1,.1,1.8l-.322.406-9.655.085c-9.435.085-9.672.1-10.129.44A2.391,2.391,0,0,0,320.5-341a2.391,2.391,0,0,0,1.169,2.27c.457.356.627.356,10.57.356h10.112l1.135-.542a6.509,6.509,0,0,0,3.32-3.235,4.659,4.659,0,0,0,.627-2.9,4.726,4.726,0,0,0-.542-2.761,6.445,6.445,0,0,0-3.218-3.3,5.321,5.321,0,0,0-3.066-.678A5.754,5.754,0,0,0,338.286-351.623Z" transform="translate(-239.631 301.703)"/>
    <path id="Path_241" data-name="Path 241" d="M321.7-255.571a2.786,2.786,0,0,0-1.541,3.066,2.9,2.9,0,0,0,1.762,1.948c.423.136,3.54.169,9.384.136,8.537-.051,8.757-.068,9.215-.407a2.392,2.392,0,0,0,1.169-2.27,2.392,2.392,0,0,0-1.169-2.27c-.457-.356-.678-.356-9.384-.39C323.972-255.791,322.108-255.757,321.7-255.571Z" transform="translate(-239.309 221.929)"/>
    <path id="Path_242" data-name="Path 242" d="M321.7-207.571a2.786,2.786,0,0,0-1.541,3.066,2.9,2.9,0,0,0,1.762,1.948c.423.135,3.54.169,9.384.135,8.537-.051,8.757-.068,9.215-.407a2.392,2.392,0,0,0,1.169-2.27,2.392,2.392,0,0,0-1.169-2.27c-.457-.356-.678-.356-9.384-.39C323.972-207.791,322.108-207.757,321.7-207.571Z" transform="translate(-239.309 182.059)"/>
    <path id="Path_243" data-name="Path 243" d="M321.737-159.571a2.735,2.735,0,0,0-.982,4.184c.864,1.016.695,1,10.892,1h9.333l.406.423a1.313,1.313,0,0,1,.1,1.8c-.288.356-.508.423-1.863.491-1.643.1-2.1.3-2.795,1.253a3.064,3.064,0,0,0,0,2.913c.779,1.05,1.1,1.169,3.252,1.169,1.88,0,2.05-.034,3.117-.542a6.51,6.51,0,0,0,3.32-3.235,4.684,4.684,0,0,0,.627-2.913,4.684,4.684,0,0,0-.627-2.913,6.509,6.509,0,0,0-3.32-3.235l-1.135-.542-9.909-.034C324.143-159.791,322.144-159.757,321.737-159.571Z" transform="translate(-239.344 142.19)"/>
  </g>
</svg>
