<svg xmlns="http://www.w3.org/2000/svg" width="80" height="98.585" viewBox="0 0 80 98.585">
  <g id="Mettalurgy" transform="translate(-21.6 224.886)">
    <path id="Path_265" data-name="Path 265" d="M42.707-224.28a7.784,7.784,0,0,0-4.739,4.372c-.746,1.574-.834,3.061-.834,15.7v13.991l-6.582,6.646c-7.9,7.957-8.952,9.75-8.952,15.084,0,5.771.922,7.127,13.208,19.237,11.848,11.717,12.594,12.2,18.693,12.2,5.529,0,6.319-.568,19.966-14.122L85.4-163.07v10.406c0,11.455.176,12.373,2.589,14.428,2.721,2.274,7.855,1.268,9.478-1.836.834-1.661.965-13.116.132-13.947a1.872,1.872,0,0,0-2.721.175c-.57.525-.7,1.749-.7,6.034,0,4.853-.088,5.465-.878,6.165a1.67,1.67,0,0,1-2.106.393l-1.185-.393-.219-13.685-.219-13.641-9.7-9.662c-8.82-8.788-9.829-9.662-10.883-9.4a1.777,1.777,0,0,0-1.4,1.4c-.263,1.049.57,2.011,8.425,9.837l8.732,8.7L72.019-155.463c-6.977,6.952-13.384,12.942-14.13,13.335a11.187,11.187,0,0,1-7.46.7c-1.887-.525-3.2-1.661-12.726-11.105-11.892-11.717-12.287-12.286-11.848-16.876A10.441,10.441,0,0,1,27-173.432c.483-.787,5.924-6.471,12.111-12.592L50.3-197.173v11.236c0,10.668.044,11.28.834,11.717,1.185.612,1.624.568,2.413-.262.614-.568.7-2.274.7-12.023,0-6.208.176-11.324.351-11.324a9.476,9.476,0,0,1,2.15,1.836l1.843,1.88.132,12.023c.132,11.892.132,12.023,1.185,13.51a6.322,6.322,0,0,0,8.381,1.749,5.842,5.842,0,0,0,3.159-4.984c.044-1.705-.527-2.4-2.106-2.4a1.851,1.851,0,0,0-1.931,1.967,1.93,1.93,0,0,1-2.194,1.967c-2.15,0-2.194-.219-2.194-13.029v-11.98l-4.388-4.5c-2.413-2.492-4.388-4.809-4.388-5.159,0-2.142,2.413-4.2,4.256-3.629.439.131,9.347,8.788,19.79,19.194,16.938,16.92,18.957,19.063,18.957,20.287,0,1.049-.395,1.705-1.58,2.667-1.755,1.443-1.887,2.842-.395,3.847,1.887,1.268,5.441-1.836,6.1-5.29.746-3.847.79-3.76-19.4-23.959-10.312-10.318-19.571-19.237-20.624-19.85-1.667-.962-2.238-1.093-4.52-.874l-2.589.219v-2.886c-.044-4.809-2.238-8.176-6.056-9.269A7.88,7.88,0,0,0,42.707-224.28Zm5.617,4.416c1.624,1.049,1.975,2.842,1.975,9.968v6.6L45.691-198.7l-4.651,4.591L41.171-206,41.3-217.9l1.273-1.312A4.546,4.546,0,0,1,48.324-219.864Z" transform="translate(0)"/>
    <path id="Path_266" data-name="Path 266" d="M133.321-32.34a8.842,8.842,0,0,0-4.117,4.614,10.043,10.043,0,0,0,1.04,6.469A9.856,9.856,0,0,0,133.23-19a5.687,5.687,0,0,0,4.207.724c3.89-.588,7.057-4.84,6.288-8.5A7.644,7.644,0,0,0,133.321-32.34Zm5.338,4.886a2.892,2.892,0,0,1-2.488,4.8,2.972,2.972,0,0,1-1.312-5.564A2.828,2.828,0,0,1,138.659-27.455Z" transform="translate(-60.614 -108.156)"/>
  </g>
</svg>