<svg xmlns="http://www.w3.org/2000/svg" width="80.4" height="80.3" viewBox="0 0 80.4 80.3">
  <g id="Pyrotechnics" transform="translate(-9.8 90.3)">
    <path id="Path_244" data-name="Path 244" d="M10-86.8c0,3.5.1,3.5,4.9,4.1,6.2.7,14,4.6,19.5,9.7l4.3,4,2.2-2.4L43-73.7l-5-4.7C32-84,22.6-88.6,15.3-89.6L10-90.3Z"/>
    <path id="Path_245" data-name="Path 245" d="M53.8-83.3a52.255,52.255,0,0,0-1.4,7.1c.2.1,1.9-2.4,3.9-5.8,3.4-5.6,3.5-6,1.7-7a14.388,14.388,0,0,0-2.2-1C55.6-90,54.7-87,53.8-83.3Z"/>
    <path id="Path_246" data-name="Path 246" d="M80.7-88.9c-5.9,1.4-13.6,5.7-18.9,10.6L57-73.7l2.1,2.3L61.3-69l4.3-4c5.5-5.1,13.3-9,19.5-9.7,4.8-.6,4.9-.7,4.9-3.9,0-3.1-.3-3.4-2.7-3.3A46.213,46.213,0,0,0,80.7-88.9Z"/>
    <path id="Path_247" data-name="Path 247" d="M41.3-85.2c-.9.5-.3,2.1,1.9,5.5,1.7,2.6,3.2,4.6,3.5,4.4.2-.2-.2-2.7-.9-5.6C44.7-85.9,43.8-86.8,41.3-85.2Z"/>
    <path id="Path_248" data-name="Path 248" d="M14.7-77.4A4.028,4.028,0,0,0,14-75c0,1.2,1.9,2.1,7.3,3.5,3.9,1,7.9,2,8.7,2.2,1.4.5-11.4-7.5-13.6-8.3A1.721,1.721,0,0,0,14.7-77.4Z"/>
    <path id="Path_249" data-name="Path 249" d="M76-73.3c-4.1,2.5-6.8,4.3-6,4.1.8-.3,4.8-1.3,8.8-2.3,6.2-1.6,7.2-2.2,7-3.9a2.8,2.8,0,0,0-1.3-2.2C84-77.7,80.1-75.8,76-73.3Z"/>
    <path id="Path_250" data-name="Path 250" d="M47-66.4c-2.1,2.1-3,2.4-6.2,1.9L37-65.2v3.6c0,2.8-.7,4-3.5,6.1l-3.4,2.7,2.3,3.1c1.7,2.3,2.1,3.8,1.6,5.2-1.7,4-1.1,5.4,2.4,6,2.5.5,3.7,1.5,5,4.2s2.1,3.4,3.6,3c1.9-.5,2,0,2,10.4V-10h6V-21.1c0-10.6.1-11,2-10.4,1.6.5,2.3-.1,3.7-2.9,1.1-2.4,2.4-3.6,3.7-3.6,4,0,5.1-1.5,3.9-5.3-.9-3-.7-3.8,1.3-6.5l2.4-3-3.5-2.6c-2.8-2.2-3.5-3.4-3.5-6.2v-3.6l-3.8.7c-3.2.5-4.1.2-6.2-1.9-1.3-1.5-2.6-2.6-3-2.6S48.3-67.9,47-66.4ZM51.5-58c.3.5,1.7,1,3.1,1,1.6,0,2.4.6,2.4,1.6a4.441,4.441,0,0,0,1.7,2.9c1.4,1.1,1.5,1.5.4,2.8a4.341,4.341,0,0,0-.6,3.7c.3,1.1.2,2-.4,2a6.645,6.645,0,0,0-2.7,1.7c-2.4,2.4-8.4,2.5-10.7.2A5.461,5.461,0,0,0,41.9-44c-.6,0-.8-.9-.4-2a4.341,4.341,0,0,0-.6-3.7c-1.1-1.3-1-1.7.4-2.8A4.441,4.441,0,0,0,43-55.4c0-1,.8-1.6,2.4-1.6,1.4,0,2.8-.5,3.1-1A1.882,1.882,0,0,1,50-59,1.882,1.882,0,0,1,51.5-58Z"/>
    <path id="Path_251" data-name="Path 251" d="M15-67.3c-4.4.5-5.3,1.4-3.7,3.6,1.1,1.6,1.5,1.5,4.7-1.2,1.9-1.7,3.3-3,3-2.9S16.9-67.5,15-67.3Z"/>
    <path id="Path_252" data-name="Path 252" d="M84.1-64.8c3.1,2.6,3.5,2.7,4.6,1.2,1.7-2.4.9-3.1-3.8-3.6l-4.2-.4Z"/>
    <path id="Path_253" data-name="Path 253" d="M22-62.4a59.465,59.465,0,0,0-8.7,5c-2.9,2.2-3.3,3.1-3.3,7.1v4.7l3.3-3.1c4-3.8,10.7-8,14.1-8.9,2.2-.5,2.5-1,2-2.8C28-65,27.7-65.1,22-62.4Z"/>
    <path id="Path_254" data-name="Path 254" d="M71.1-61.8c-.6,1.7-1.1,3.2-1.1,3.3,0,.2,1.2.6,2.8,1,3.5.9,8.7,4.1,13.5,8.3L90-45.8v-4.6c0-4.3-.3-4.8-4.7-8.1a45.136,45.136,0,0,0-9-4.9l-4.2-1.4Z"/>
    <path id="Path_255" data-name="Path 255" d="M20-47.5c0,2.3.3,2.5,2.8,1.9,1.5-.4,3.6-1,4.6-1.4,1.7-.6,1.6-.8-1-1.4-1.6-.4-3.7-.9-4.6-1.2C20.4-50,20-49.5,20-47.5Z"/>
    <path id="Path_256" data-name="Path 256" d="M74.5-48.6l-4,1.2,3,.8c1.7.4,3.8.9,4.8,1.2,1.3.4,1.7-.1,1.7-2C80-50.3,80-50.3,74.5-48.6Z"/>
    <path id="Path_257" data-name="Path 257" d="M14.2-37.8c-3.5,2.2-3.9,3-1.8,4.7,1.1.9,1.8.4,3.5-2.5a14.137,14.137,0,0,0,1.9-4A10.488,10.488,0,0,0,14.2-37.8Z"/>
    <path id="Path_258" data-name="Path 258" d="M21.6-35c-5,5.3-10,14.9-11.2,21.3L9.8-10h3.6c3.1,0,3.6-.3,3.6-2.3,0-3.4,5.4-14,9.5-18.6,3.6-4,3.7-4.2,2.1-6.6a9.158,9.158,0,0,0-2-2.5A67.126,67.126,0,0,0,21.6-35Z"/>
    <path id="Path_259" data-name="Path 259" d="M71.5-37.6c-1.7,2.6-1.7,2.7,2,6.7C77.6-26.3,83-15.7,83-12.3c0,2,.5,2.3,3.6,2.3h3.6l-.6-3.8c-1.1-6.1-7.2-17.4-11.9-22.1l-4.5-4.3Z"/>
    <path id="Path_260" data-name="Path 260" d="M82-39.6a30.982,30.982,0,0,0,2.1,4.1c2,3.4,2.3,3.5,3.8,2s1.4-1.7-.4-3.1C84.8-38.7,82-40.2,82-39.6Z"/>
    <path id="Path_261" data-name="Path 261" d="M30.6-25.3c-3,5.2-3.5,6.7-2.5,7.4a3.885,3.885,0,0,0,2.4.6c.8-.3,4.8-13.8,4.2-14.3A59.94,59.94,0,0,0,30.6-25.3Z"/>
    <path id="Path_262" data-name="Path 262" d="M65.6-29.5c3,12.5,3.5,13.4,6.3,11.6,1.1-.7.5-2.3-2.8-7.7C66.2-30.4,65.1-31.6,65.6-29.5Z"/>
    <path id="Path_263" data-name="Path 263" d="M38.8-20.5a38.213,38.213,0,0,0-1.3,6.2c-.6,4.1-.6,4.3,1.8,4.3s2.4-.2,1.7-3.8c-.5-2-1-4.8-1.2-6.2C39.5-22.3,39.4-22.3,38.8-20.5Z"/>
    <path id="Path_264" data-name="Path 264" d="M59.4-16c-1,5.9-1,6,1.4,6,2.2,0,2.3-.2,1.6-4.7C61.4-22.2,60.5-22.6,59.4-16Z"/>
  </g>
</svg>
