<svg xmlns="http://www.w3.org/2000/svg" width="77.88" height="122.382" viewBox="0 0 77.88 122.382">
  <g id="battery" transform="translate(-92.445 0.5)">
    <g id="Group_13" data-name="Group 13" transform="translate(92.445 -0.5)">
      <path id="Path_267" data-name="Path 267" class="cls-1" d="M111.341-.5h17.927A3.429,3.429,0,0,1,131.3,1.89q.179,2.507.12,5.02,5.977-.06,11.951.12a6.612,6.612,0,0,1,4.661,4.9q.179,30.954.12,61.908,14.733,1.531,20.676,15.059a21.505,21.505,0,0,1,1.434,9.561q-2.1,2.042-3.585-.478a19.759,19.759,0,0,0-4.661-12.907,28.8,28.8,0,0,0-2.271,2.151q1.26,2.4,2.39,5.02a16.88,16.88,0,0,1-2.39,15.537.6.6,0,0,0,0,.717l2.151,2.151a15.2,15.2,0,0,0,3.585-6.215,2.031,2.031,0,0,1,3.346-.478,2.989,2.989,0,0,1,.239,2.151q-5.468,13.215-19.481,15.776h-6.693a25.2,25.2,0,0,1-14.1-7.29l-31.552-.239a6.612,6.612,0,0,1-4.661-4.9q-.239-16.612,0-33.225a1.12,1.12,0,0,1,.837-.837,1.887,1.887,0,0,1,2.749,1.315q.005,16.394.478,32.747a3.061,3.061,0,0,0,2.51,1.315q13.268.3,26.532-.12a16.414,16.414,0,0,1-1.673-3.346q-11.591-.3-23.186-.359a2.26,2.26,0,0,1-.6-.359q-.412-4.688-.359-9.442.06-4.482.12-8.964a2.26,2.26,0,0,1,.359-.6q12.04-.473,24.142-.478a27.119,27.119,0,0,1,2.629-4.063q-13.288-.007-26.532-.478a1.668,1.668,0,0,1-.6-.837q-.239-8.964,0-17.927l.837-.837q19.361-.239,38.722,0a1.8,1.8,0,0,1,1.076,1.076q.119,5.139.239,10.278a10.918,10.918,0,0,1,3.466-.478q.06-30.6-.12-61.191a3.09,3.09,0,0,0-2.749-2.032q-21.154-.239-42.308,0A2.741,2.741,0,0,0,96.4,12.646q-.119,28.564-.239,57.127-1.484,2.519-3.585.478-.355-29.655.239-59.279a6.819,6.819,0,0,1,4.422-3.944q5.974-.179,11.951-.12-.06-2.632.12-5.259A3.855,3.855,0,0,1,111.341-.5Zm1.673,3.585H127.6V6.91H113.015Zm-9.322,87.723c11.075,0,7.834-.088,18.909-.088-.164,5.171-.082,4.9-.026,12.517H103.693Zm0-24.142h33.225q.06,4.424-.12,8.844a22.632,22.632,0,0,0-5.617,3.466q-13.744.179-27.488.12Zm40.874,10.756a21.26,21.26,0,0,1,14.581,4.661l-2.51,2.51q-10.328-7.163-20.676,0-1.369-1.19-2.629-2.51A22.164,22.164,0,0,1,144.566,77.423Zm-14.1,7.41q1.362,1.182,2.629,2.51-6.37,9.092-1.315,19a7.65,7.65,0,0,0,1.315,1.793l-2.51,2.51a20.275,20.275,0,0,1-3.346-20.078A33.542,33.542,0,0,1,130.464,84.833Zm14.581,0q11.289.122,13.983,11a13.159,13.159,0,0,1-5.617,12.788q-9.5,5.134-17.09-2.51-5.831-8.04-.239-16.254A13.84,13.84,0,0,1,145.044,84.833Zm-41.352,5.976c6.454,0,12.456-.088,18.909-.088-.185,9.172-.061,5.951-.026,12.517H103.693Zm32.03,20.317a18.179,18.179,0,0,0,17.449,2.032q1.768-.973,3.466-2.032a11.888,11.888,0,0,1,2.51,2.39,20.129,20.129,0,0,1-20.317,3.227,17.457,17.457,0,0,1-4.781-2.629.641.641,0,0,1-.359-.837A25.608,25.608,0,0,0,135.722,111.126Z" transform="translate(-92.445 0.5)"/>
    </g>
    <g id="Group_14" data-name="Group 14" transform="translate(99.868 14.305)">
      <path id="Path_268" data-name="Path 268" class="cls-2" d="M124.456,61.452q19.481-.06,38.961.12l.837.837q.239,8.963,0,17.927l-.837.837q-5.856.239-11.712,0-2.123-2.293.717-3.585,4.062-.179,8.127-.12V65.277H127.324v12.19q8.964-.06,17.927.12,2.334,1.033,1.076,3.227a2.259,2.259,0,0,1-.6.359q-10.906.353-21.751-.239a2.259,2.259,0,0,1-.359-.6q-.239-8.964,0-17.927A1.671,1.671,0,0,1,124.456,61.452Z" transform="translate(-123.5 -61.437)"/>
    </g>
    <g id="Group_15" data-name="Group 15" transform="translate(99.868 38.418)">
      <path id="Path_269" data-name="Path 269" class="cls-3" d="M124.695,162.363q19.5-.175,38.961.359a1.668,1.668,0,0,1,.6.837q.239,8.844,0,17.688a1.8,1.8,0,0,1-1.076,1.076q-19.242.239-38.483,0a2.757,2.757,0,0,1-1.076-.837q-.239-8.964,0-17.927A2.633,2.633,0,0,1,124.695,162.363Zm2.629,3.824v12.429h33.225V166.187Z" transform="translate(-123.5 -162.32)"/>
    </g>
    <g id="Group_16" data-name="Group 16" transform="translate(141.937 88.091)">
      <path id="Path_270" data-name="Path 270" class="cls-4" d="M304.042,370.219q2.464-.509,2.629,1.912a43.207,43.207,0,0,1-2.151,5.737,14.994,14.994,0,0,0,2.629.359,2.276,2.276,0,0,1,.956,1.673,88.11,88.11,0,0,1-3.585,8.964,2.013,2.013,0,0,1-3.227-.239,4.614,4.614,0,0,1,.239-2.629q.85-2,1.793-3.944a11.047,11.047,0,0,1-2.868-.478,2.488,2.488,0,0,1-.956-1.673q1.824-4.664,3.944-9.2A2.292,2.292,0,0,0,304.042,370.219Z" transform="translate(-299.5 -370.13)"/>
    </g>
  </g>
</svg>
