<svg xmlns="http://www.w3.org/2000/svg" width="77.099" height="85.216" viewBox="0 0 77.099 85.216">
  <g id="Ceramics" transform="translate(-6.056 128)">
    <path id="Path_213" data-name="Path 213" d="M18-126.669a4.6,4.6,0,0,0-1.332,2.663c0,1.531,2.2,3.994,3.662,3.994,1.132,0,3,3.329,3,5.326,0,.8-2.2,3.728-5.459,7.19a43.407,43.407,0,0,0-7.656,10.186C2.823-82.33,5.42-65.752,16.937-53.569c3.528,3.662,4.394,5.06,3.861,5.592a2.834,2.834,0,0,0,.266,4.128c.865.932,3.995,1.065,23.568,1.065s22.7-.133,23.568-1.065a2.834,2.834,0,0,0,.266-4.128c-.533-.533.333-1.931,3.861-5.592,9.187-9.72,12.649-21.837,9.92-34.686-1.531-7.124-4.594-12.716-10.785-19.24-3.329-3.462-5.526-6.391-5.526-7.19,0-2,1.864-5.326,3-5.326,1.465,0,3.662-2.463,3.662-3.994a4.6,4.6,0,0,0-1.331-2.663C70-127.933,69.065-128,44.632-128S19.267-127.933,18-126.669Zm51.8,2.463c-.133.932-1.132,1.265-4.527,1.531-3.262.266-4.327.6-4.327,1.331,0,.6.865,1.132,2.2,1.332,2.2.333,2.2.333,1,1.664a18.66,18.66,0,0,1-3.795,2.663l-2.463,1.332-2.6-1.531c-3.262-1.864-4.727-1.864-8.056,0l-2.6,1.531-2.6-1.531a11.635,11.635,0,0,0-4.061-1.465,10.96,10.96,0,0,0-3.995,1.465l-2.6,1.531-3.062-1.664a12.192,12.192,0,0,1-3.728-2.8c-.6-1.132.466-1.2,16.178-1.332,14.447-.2,16.843-.333,16.843-1.2s-2.73-1.065-18.974-1.331c-17.376-.333-18.974-.4-19.174-1.531-.2-1.065,1.332-1.132,25.165-1.132S70-125.27,69.8-124.205Zm-38.48,11.85a6.28,6.28,0,0,0,3.795-1.2,5.322,5.322,0,0,1,2.863-1.132,5.322,5.322,0,0,1,2.863,1.132,6.28,6.28,0,0,0,3.795,1.2,6.28,6.28,0,0,0,3.795-1.2,5.322,5.322,0,0,1,2.863-1.132,5.322,5.322,0,0,1,2.863,1.132c1.6,1.531,5.992,1.531,7.656,0,1.332-1.2,2.13-.932,2.13.865,0,.6,2.33,3.462,5.193,6.391,8.056,8.189,11.451,16.045,11.451,26.231,0,9.653-3.462,17.975-10.319,25.165L66.2-50.773H23.062L19-54.967a34.976,34.976,0,0,1-10.319-25.1c0-10.186,3.4-18.042,11.451-26.231,2.863-2.929,5.193-5.792,5.193-6.391,0-1.8.8-2.064,2.13-.865A6.655,6.655,0,0,0,31.317-112.355ZM65.936-47.844a10.408,10.408,0,0,0,.4,1.332c.4.932-1.8,1.065-21.637,1.065-12.117,0-22.036-.133-22.036-.266a10.407,10.407,0,0,1,.4-1.332c.333-.932,2.863-1.065,21.637-1.065C56.349-48.11,65.936-47.977,65.936-47.844Z" transform="translate(0)"/>
    <path id="Path_214" data-name="Path 214" d="M50.778-88.769a8.33,8.33,0,0,0-5.06,7.789c0,3.6,1.664,5.526,5.193,6.125,2.064.333,2.663.067,4.461-1.664a6.671,6.671,0,0,0,2-3.728c0-1.8-1.531-3.728-3-3.728s-1.864,1.331-.666,2.264c2.4,1.731-.067,4.927-3.2,4.128-2.2-.533-2.929-3-1.8-5.792A5.958,5.958,0,0,1,54.772-87.3c6.191,0,8.788,8.322,4.061,12.849-2.264,2.2-5.06,3.329-11.651,4.793C41.058-68.331,38-67.133,36.73-65.668c-1.265,1.531-.2,2.064,2.2,1,2.863-1.265,7.19-1.132,9.321.333,1,.6,2.8,2.863,4.061,4.927C59.1-48.358,68.82-45.429,74.878-52.619c3.262-3.928,2.064-10.652-2.4-13.382-3.995-2.463-10.053-1.2-11.717,2.463-1.132,2.463-.865,3.928,1,6.125a4.469,4.469,0,0,0,4.194,2.064c2.929,0,4.927-1.8,4.594-4.128-.266-1.931-2.13-2-2.4-.067s-2,2.463-3.861,1.2c-3.329-2.2-1.132-6.325,3.329-6.325,3.262,0,5.592,1.6,6.458,4.594C75.943-53.818,68.953-49.29,62.3-52.42c-7.723-3.662-8.854-11.85-2.6-18.907a20.887,20.887,0,0,0,3.728-5.925A9.58,9.58,0,0,0,58.3-89.036C55.371-90.234,53.507-90.234,50.778-88.769ZM54.04-67.4a7.821,7.821,0,0,0-.666,2.73c0,1.4-.067,1.4-2.264-.466-2.33-1.931-2.33-2.53-.067-3.062C54.107-68.93,54.772-68.73,54.04-67.4Z" transform="translate(-10.073 -12.734)"/>
    <path id="Path_215" data-name="Path 215" d="M31.466-47.566A9.985,9.985,0,0,0,31-43.771c0,2.929.266,3.6,2.6,5.859,2.53,2.53,3.795,3,8.056,2.6a5.57,5.57,0,0,0,5.06-3.4c2.73-5.326-3.4-10.918-8.255-7.523a2.733,2.733,0,0,0-1.332,2.8c.266,2.2,2.13,2.4,2.4.266.333-2,3.728-2.064,4.793-.067,1.531,2.73-.865,5.925-4.394,5.925s-7.057-4.194-6.791-8.056C33.33-47.366,32.465-48.5,31.466-47.566Z" transform="translate(-8.338 -26.774)"/>
  </g>
</svg>
