<svg xmlns="http://www.w3.org/2000/svg" width="75.012" height="75.156" viewBox="0 0 75.012 75.156">
  <g id="Elect" transform="translate(-41.5 198.908)">
    <path id="Path_203" data-name="Path 203" d="M137.693-198.142a14.915,14.915,0,0,0-4.81,3.429c-3.381,3.381-4.477,6.334-4.1,10.954l.286,3.143-6.286,6.334L116.5-168l2.953,2.953,2.905,2.905,1.524-1.238c1.714-1.476,2.238-1.572,3.619-.619.9.667,1.238.429,5.429-3.762l4.429-4.477,3.191.286c4.667.381,7.62-.714,11-4.1a13.242,13.242,0,0,0,3.429-5c.857-2.429,1.1-7.239.429-8.239-.238-.429-1.714.762-4.62,3.667-3.048,3.048-4.62,4.286-5.429,4.286s-2.143-.952-4.191-3-3-3.381-3-4.191,1.238-2.381,4.286-5.429c2.905-2.905,4.1-4.381,3.667-4.62C145.17-199.19,139.979-198.9,137.693-198.142Z" transform="translate(-39.282)"/>
    <path id="Path_204" data-name="Path 204" d="M47.524-191.428A5.515,5.515,0,0,0,46-189.285a28.9,28.9,0,0,0,3.381,5.048c3.1,4.143,3.524,4.524,5.62,5.048,2.1.476,3.191,1.476,14.764,13.049L82.29-153.615l-1.714,1.857c-2,2.143-2.1,2.524-.619,3.905,1.238,1.143,2.238,1.333,3.048.524a1.249,1.249,0,0,1,1.333-.238c.619.238.762.667.524,1.9A5.655,5.655,0,0,0,85-142.947c.524,1.476,20.621,21.479,22.1,22.05,1.953.714,3.524-.1,6.953-3.477,5.953-5.905,5.953-5.81-6.763-18.478-5.524-5.524-10.62-10.287-11.239-10.62a4.833,4.833,0,0,0-2.667-.286c-1.81.333-3.191-.762-2.238-1.714.857-.857.667-2-.524-3.143-1.429-1.333-1.667-1.333-3.667.381a11.037,11.037,0,0,1-1.9,1.429c-.143,0-5.858-5.62-12.716-12.525-10.763-10.763-12.525-12.763-13-14.478-.429-1.81-1.048-2.476-5.239-5.62-2.572-1.953-4.81-3.572-4.905-3.572A21.823,21.823,0,0,0,47.524-191.428Z" transform="translate(-2.357 -3.095)"/>
    <path id="Path_205" data-name="Path 205" d="M65.169-115.142l-5.905,5.905-3.524-.238c-4.381-.286-7.1.667-10.1,3.429-3.286,3-4.143,5.048-4.143,9.811,0,4.667.857,6.715,3.905,9.572,3.048,2.905,4.62,3.524,9.192,3.524,4.762,0,6.81-.857,9.811-4.143,2.81-3.048,3.715-5.763,3.381-10l-.238-3.477,4.334-4.381c4.143-4.191,4.286-4.429,3.524-5.286-1.1-1.238-1.048-1.714.619-3.572l1.381-1.619-2.715-2.667A17.742,17.742,0,0,0,71.5-121C71.218-121,68.36-118.333,65.169-115.142ZM59.74-101.331c1.953,1.953,2,2.143,2,5.143s-.048,3.143-2.048,5.1c-1.953,1.9-2.143,2-5,2-2.81,0-3.1-.1-5.1-1.953-2.143-1.953-2.143-2-2.143-5.1,0-3.048.048-3.238,2-5.191,1.953-2,2.1-2.048,5.143-2.048S57.788-103.331,59.74-101.331Z" transform="translate(0 -40.805)"/>
  </g>
</svg>
