<svg xmlns="http://www.w3.org/2000/svg" width="75.648" height="75.672" viewBox="0 0 75.648 75.672">
  <g id="_1503986" data-name="1503986" transform="translate(0 85.436)">
    <path id="Path_194" data-name="Path 194" d="M6.858-127.054a2.881,2.881,0,0,0-.946,1.478c0,.3-.769.177-1.714-.3-1.478-.769-1.833-.769-2.956,0C.3-125.162,0-124.394,0-122.325c0,2.365.236,2.779,2.424,4.316a17.538,17.538,0,0,0,4.434,2.424c1.892.65,2.01.769,1.182,1.714-2.779,3.074-3.606,10.76-1.6,15.134A15.118,15.118,0,0,0,26.9-91.642l3.37-1.6,2.483,2.424c1.36,1.3,3.015,2.424,3.724,2.424,1.241,0,6.089-4.73,6.089-5.912a12.726,12.726,0,0,0-2.66-3.488l-2.66-2.838,1.419-2.6c5.143-9.341-.65-20.455-11.528-22.11-2.424-.355-5.2.236-9.991,2.247-.591.3-1.36-.414-2.483-2.247C13.124-127.882,12.888-128,10.4-128,8.809-128,7.39-127.645,6.858-127.054Zm5.853,3.192c.887,1.714.887,1.774-.532,1.774a3.105,3.105,0,0,1-2.365-1.478c-1.241-1.892-1.182-2.069.532-2.069C11.351-125.635,12.06-125.1,12.711-123.862Zm-4.434,3.37c3.252,1.419,6.917,1.182,10.819-.65,6.858-3.252,14.129-1.182,17.44,4.966,1.123,2.187,1.36,3.311,1.182,6.562-.236,4.73-1.833,7.745-3.252,6.267-.769-.769-.769-1.064.118-2.779,1.36-2.66.946-7.449-.828-9.991a11.109,11.109,0,0,0-8.158-4.2,15.516,15.516,0,0,0-5.5,1.6A14.733,14.733,0,0,1,5.912-118.9c-2.542-1.478-3.311-2.187-3.429-3.488l-.236-1.655,2.01,1.3A38.525,38.525,0,0,0,8.277-120.492Zm20.4,3.37a7.619,7.619,0,0,1,3.9,9.459l-.65,1.655-2.365-2.128a8.819,8.819,0,0,0-3.192-2.128c-.414,0-2.01,1.3-3.547,2.956-3.015,3.252-3.015,3.724-.118,6.444,1.951,1.833,1.951,2.306-.059,3.074-3.665,1.36-8.454-1.242-9.7-5.321-.709-2.306-.532-2.9,2.779-8.927,1.123-2.069,2.128-2.956,4.789-4.257C24.416-118.127,25.835-118.3,28.673-117.122ZM13.183-112.57c-2.719,4.67-3.133,5.675-3.133,7.508a10.1,10.1,0,0,0,3.724,7.626,9.147,9.147,0,0,0,8.986,2.01c3.488-1.064,4.73-1.064,4.73-.059,0,1.419-3.784,2.956-7.272,2.956A12.393,12.393,0,0,1,7.8-106.126c.414-3.9,3.015-8.277,4.966-8.277h1.478ZM33.4-100.805l6.444,6.5-1.714,1.774-1.714,1.774-6.68-6.621L23.056-104l1.6-1.655a7.761,7.761,0,0,1,1.951-1.655A90.225,90.225,0,0,1,33.4-100.805Z" transform="translate(0 42.564)"/>
    <path id="Path_195" data-name="Path 195" d="M107-111.753c0,.887.3,1.182,1.064,1.064a1.248,1.248,0,0,0,1.005-1.064,1.248,1.248,0,0,0-1.005-1.064C107.3-112.935,107-112.64,107-111.753Z" transform="translate(-43.743 36.367)"/>
    <path id="Path_196" data-name="Path 196" d="M96.412-93.57a1.129,1.129,0,0,0,.828,2.01c.828,0,1.123-.3,1.005-1.005C98.067-93.629,97.062-94.161,96.412-93.57Z" transform="translate(-39.244 28.589)"/>
    <path id="Path_197" data-name="Path 197" d="M115.392-93.388a1.254,1.254,0,0,0,1.242,1.833c.532,0,.828-.414.709-1.005C117.106-93.743,115.924-94.216,115.392-93.388Z" transform="translate(-47.109 28.585)"/>
    <path id="Path_198" data-name="Path 198" d="M110.182-77.818A4.362,4.362,0,0,0,109-75.157c0,1.774,1.892,3.843,3.488,3.843a4.175,4.175,0,0,0,3.784-3.843A4.175,4.175,0,0,0,112.488-79,4.121,4.121,0,0,0,110.182-77.818Zm3.37,3.192a1.03,1.03,0,0,1-1.3.591,1.151,1.151,0,0,1-.118-2.187A1.134,1.134,0,0,1,113.552-74.625Z" transform="translate(-44.56 22.532)"/>
    <path id="Path_199" data-name="Path 199" d="M65.188-77.144a9.719,9.719,0,0,0,1.774,3.015c1.951,2.483,2.6,4.2,2.247,6.267-.177,1.419-.236,1.36-1.064-.3-.946-1.892-2.66-3.192-3.311-2.6a14.548,14.548,0,0,0-.887,3.133,16.568,16.568,0,0,1-2.187,5.2c-4.2,6.148-3.961,11.469.591,16.2l1.892,1.951H62.173c-2.483,0-3.488.887-3.488,3.074,0,1.6-.118,1.655-2.9,1.655C52.3-39.544,51-38.48,51-35.7c0,3.9-.473,3.843,23,3.843,15.607,0,21.283-.177,21.815-.709,1.005-1.005.887-4.966-.236-6.03-.591-.591-1.951-.946-3.843-.946-2.779,0-2.9-.059-2.9-1.655,0-2.306-1.005-3.074-3.961-3.074-1.419,0-2.542-.3-2.542-.591a.559.559,0,0,1,.591-.591c.946,0,4.079-5.084,4.67-7.685.65-2.9-.355-7.626-2.01-9.459-1.478-1.655-1.892-1.478-2.66,1.005-1.123,3.547-1.478,3.37-1.478-.887-.059-6.385-3.192-10.641-10.464-14.011C67.494-78.149,65.188-78.385,65.188-77.144Zm8.868,5.38c4.434,3.252,5.5,6.5,4.493,14.307-.414,3.311-.355,3.724.532,3.724.591,0,2.069-1.064,3.37-2.365a21.268,21.268,0,0,1,2.6-2.365,9.539,9.539,0,0,1,.236,2.9,11.441,11.441,0,0,1-4.316,8.454c-1.714,1.36-2.187,1.3-2.187-.236A14.761,14.761,0,0,0,76.657-52.2c-1.241-2.01-2.187-4.2-2.128-5.143.059-2.542-.946-2.66-3.192-.473-2.66,2.6-4.375,6.207-4.375,9.282,0,1.36-.236,2.483-.473,2.483-1.064,0-4.316-4.079-4.907-6.089A9.964,9.964,0,0,1,63.355-60.3a32.831,32.831,0,0,0,2.01-3.192l.887-1.774.414,1.774c.236.946.473,2.128.591,2.483.769,2.483,4.434-3.724,4.434-7.508A11.82,11.82,0,0,0,71.1-72.3C70.39-74.306,70.686-74.247,74.056-71.764Zm2.187,24.948c.3,1.774.177,1.892-1.833,2.247-4.67.887-6.326-2.483-3.9-7.922l1.182-2.542L73.819-51.9A17.328,17.328,0,0,1,76.243-46.816Zm10.228,6.089c0,1.123-.414,1.182-12.711,1.182S61.05-39.6,61.05-40.727s.414-1.182,12.711-1.182S86.471-41.85,86.471-40.727Zm7.567,5.143.177,1.36h-20.1c-13.361,0-20.219-.236-20.455-.591a1.961,1.961,0,0,1-.059-1.537c.3-.709,3.192-.828,20.278-.709l19.982.177Z" transform="translate(-20.849 22.095)"/>
    <path id="Path_200" data-name="Path 200" d="M43.162-51.952c.236,1.241,1.951,1.478,1.951.177a1.248,1.248,0,0,0-1.064-1.064C43.221-53.016,42.984-52.779,43.162-51.952Z" transform="translate(-17.622 11.86)"/>
    <path id="Path_201" data-name="Path 201" d="M36.855-42.008c-.532.65-.473,1.005.236,1.6s.946.532,1.241-.3C38.865-42.067,37.742-43.072,36.855-42.008Z" transform="translate(-14.922 7.592)"/>
    <path id="Path_202" data-name="Path 202" d="M46.038-34.925c-2.6,2.9.532,7.331,4.2,5.971,2.542-.946,2.838-5.025.473-6.562A4.232,4.232,0,0,0,46.038-34.925Zm3.606,2.66c.118.591-.177,1.005-.709,1.005a1.254,1.254,0,0,1-1.241-1.833C48.225-33.92,49.408-33.447,49.644-32.265Z" transform="translate(-18.43 4.943)"/>
  </g>
</svg>
