<?xml version="1.0" standalone="no"?>
<!DOCTYPE svg PUBLIC "-//W3C//DTD SVG 20010904//EN"
 "http://www.w3.org/TR/2001/REC-SVG-20010904/DTD/svg10.dtd">
<svg version="1.0" xmlns="http://www.w3.org/2000/svg"
 width="225.000000pt" height="225.000000pt" viewBox="0 0 225.000000 225.000000"
 preserveAspectRatio="xMidYMid meet">

<g transform="translate(0.000000,225.000000) scale(0.100000,-0.100000)"
fill="#000000" stroke="none">
<path d="M697 2235 c-50 -17 -85 -50 -108 -100 -17 -36 -19 -70 -19 -359 l0
-320 -150 -152 c-180 -182 -204 -223 -204 -345 0 -132 21 -163 301 -440 270
-268 287 -279 426 -279 126 0 144 13 455 323 l272 272 0 -238 c0 -262 4 -283
59 -330 62 -52 179 -29 216 42 19 38 22 300 3 319 -17 17 -44 15 -62 -4 -13
-12 -16 -40 -16 -138 0 -111 -2 -125 -20 -141 -16 -15 -26 -17 -48 -9 l-27 9
-5 313 -5 312 -221 221 c-201 201 -224 221 -248 215 -17 -4 -28 -15 -32 -32
-6 -24 13 -46 192 -225 l199 -199 -290 -289 c-159 -159 -305 -296 -322 -305
-48 -24 -116 -31 -170 -16 -43 12 -73 38 -290 254 -271 268 -280 281 -270 386
3 34 14 73 26 92 11 18 135 148 276 288 l255 255 0 -257 c0 -244 1 -258 19
-268 27 -14 37 -13 55 6 14 13 16 52 16 275 0 142 4 259 8 259 4 0 27 -19 49
-42 l42 -43 3 -275 c3 -272 3 -275 27 -309 43 -61 124 -78 191 -40 45 25 70
66 72 114 1 39 -12 55 -48 55 -26 0 -44 -18 -44 -45 0 -28 -19 -45 -50 -45
-49 0 -50 5 -50 298 l0 274 -100 103 c-55 57 -100 110 -100 118 0 49 55 96 97
83 10 -3 213 -201 451 -439 386 -387 432 -436 432 -464 0 -24 -9 -39 -36 -61
-40 -33 -43 -65 -9 -88 43 -29 124 42 139 121 17 88 18 86 -442 548 -235 236
-446 440 -470 454 -38 22 -51 25 -103 20 l-59 -5 0 66 c-1 110 -51 187 -138
212 -49 13 -79 12 -125 -5z m128 -101 c37 -24 45 -65 45 -228 l0 -151 -105
-105 -106 -105 3 272 3 272 29 30 c34 36 90 42 131 15z"/>
<path d="M1385 316 c-37 -16 -82 -68 -91 -102 -10 -40 2 -114 23 -143 10 -14
40 -37 66 -50 38 -19 56 -22 93 -16 86 13 156 107 139 188 -22 105 -135 165
-230 123z m118 -108 c38 -45 4 -112 -55 -106 -67 7 -87 92 -29 123 31 17 59
11 84 -17z"/>
</g>
</svg>
