<svg xmlns="http://www.w3.org/2000/svg" width="18.2" height="33.306" viewBox="0 0 18.2 33.306">
  <defs>
    <style>
      .cls-1, .cls-3 {
        opacity: 0.7;
      }

      .cls-2, .cls-3 {
        fill: #f6eee8;
      }
    </style>
  </defs>
  <g id="Mouse" class="cls-1" transform="translate(-357 -560.791)">
    <g id="Group_160" data-name="Group 160" transform="translate(362.97 588.339)">
      <path id="Arrow_2" data-name="Arrow 2" class="cls-2" d="M80.641,136.135c-.474.1-.07.56.122.789.415.439,1.588,1.864,2.418,1.907.757.044,2.2-1.41,2.614-1.907.192-.229.474-.691,0-.789-1.124.548-1.954,1.82-2.614,1.842C82.4,137.8,81.057,135.7,80.641,136.135Z" transform="translate(-80.419 -133.075)"/>
      <path id="Arrow_1" data-name="Arrow 1" class="cls-2" d="M80.641,136.135c-.474.1-.07.56.122.789.415.439,1.588,1.864,2.418,1.907.757.044,2.2-1.41,2.614-1.907.192-.229.474-.691,0-.789-1.124.548-1.954,1.82-2.614,1.842C82.4,137.8,81.057,135.7,80.641,136.135Z" transform="translate(-80.419 -136.272)"/>
    </g>
    <g id="Group_159" data-name="Group 159" transform="translate(357 560.791)">
      <path id="Subtraction_2" data-name="Subtraction 2" class="cls-2" d="M9.224,26.562h0A10.874,10.874,0,0,1,3.679,25.2,7.184,7.184,0,0,1,.3,20.629a17.944,17.944,0,0,1-.236-5.1c.032-.7.062-1.355.062-1.994,0-.579-.022-1.163-.044-1.781A18.911,18.911,0,0,1,.3,7.043,8.65,8.65,0,0,1,3.427,2.059,9.885,9.885,0,0,1,8.947.015C9.106.005,9.266,0,9.425,0a8.549,8.549,0,0,1,5.354,1.988A9.158,9.158,0,0,1,17.9,6.807a17.631,17.631,0,0,1,.263,4.8c-.021.587-.04,1.142-.04,1.693,0,.468.007.955.013,1.427a22.585,22.585,0,0,1-.534,6.563,6.739,6.739,0,0,1-4.3,4.644,10.662,10.662,0,0,1-3.057.588C9.9,26.55,9.558,26.562,9.224,26.562ZM8.477,1.253a7.649,7.649,0,0,0-7,5.79,16.332,16.332,0,0,0-.3,4.315c.007.369.013.749.013,1.12,0,.526-.011,1.065-.022,1.636a22.432,22.432,0,0,0,.527,6.7,5.9,5.9,0,0,0,4.551,4.316,10.848,10.848,0,0,0,2.55.243c.311,0,.625-.006.929-.011l.519-.008a7.725,7.725,0,0,0,2.352-.4c4.551-1.539,4.51-6.048,4.474-10.025,0-.345-.006-.7-.006-1.038q0-.377,0-.76a30.188,30.188,0,0,0-.333-5.608A7.093,7.093,0,0,0,12.24,1.8a6.521,6.521,0,0,0-2.47-.544V3.97c1.671.543,1.471,3.1,1.109,5.275a2.336,2.336,0,0,1-.742.844.671.671,0,0,0-.349.509c-.019.161-.029.35-.039.551-.038.723-.08,1.542-.561,1.542H9.179l-.03,0c-.455,0-.575-1.161-.647-1.855-.009-.088-.017-.168-.026-.239-.034-.289-.224-.416-.444-.563a1.457,1.457,0,0,1-.671-.79,7.354,7.354,0,0,1-.374-2.381,4.341,4.341,0,0,1,.507-2.276,1.242,1.242,0,0,1,.982-.618Z" transform="translate(0 0)"/>
      <path id="Shadow_R" data-name="Shadow R" class="cls-3" d="M2.49.05C2.018.321,1.8.943,1.262,1.212.97,1.359.239,1.344.061,1.6c-.2.293.15.431.378.423A2.794,2.794,0,0,0,1.833,1.6,2.587,2.587,0,0,0,2.82.554C2.924.323,2.848-.155,2.49.05Z" transform="translate(12.836 21.578) rotate(-17)"/>
      <path id="Shadow_Dot_L" data-name="Shadow Dot L" class="cls-3" d="M55.618,73.6c-.338.174-.163.873.229.684C56.192,74.118,56,73.407,55.618,73.6Z" transform="translate(-53.057 -60.254)"/>
      <path id="Shadow_L" data-name="Shadow L" class="cls-3" d="M54.981,99.146c-.241.209-.162.813-.162,1.126,0,1.021,0,2.042,0,3.063,0,.278.049,1.048.436.8.287-.185.208-.794.208-1.121,0-1.1.042-2.209,0-3.3C55.448,99.414,55.3,98.866,54.981,99.146Z" transform="translate(-52.466 -84.204)"/>
    </g>
  </g>
</svg>
